# Exported from Figuro at https://www.figuro.io

mtllib newscene.mtl
o rectangle1
v -50.00000000000001 0 -250
v -50.00000000000001 0 250
v -350 0 250
v -350 0 -250
v 50.00000000000001 0 250
v 50.00000000000001 0 -250
v 350 0 -250
v 350 0 250
# 8 vertices
vt -0.39062500000000006 2.953125
vt -0.39062500000000006 -0.953125
vt -2.734375 -0.953125
vt -2.734375 2.953125
vt 0.39062500000000006 -0.953125
vt 0.39062500000000006 2.953125
vt 2.734375 2.953125
vt 2.734375 -0.953125
# 8 uvs
vn 0 1 0
vn 0 1 0
vn 0 1 0
vn 0 1 0
vn 0 1 0
vn 0 1 0
vn 0 1 0
vn 0 1 0
# 8 normals
usemtl bush01
f 4/4/4 3/3/3 2/2/2 1/1/1 
f 8/8/8 7/7/7 6/6/6 5/5/5 
# 2 polygons