# Exported from Figuro at https://www.figuro.io

mtllib newscene.mtl
o new model
v 0.95712 2.136723 0.345272
v 1.197925 1.502401 1.3227859999999998
v -5.551115123125783e-17 2.16907 0.345272
v -5.551115123125783e-17 1.502401 1.322786999999999
v -1.1979249999999992 1.502401 1.322786999999999
v -0.95712 2.136723 0.345272
# 6 vertices
vt 0.00373875 0.99865128125
vt 0.00467939453125 0.9948328671875
vt -2.168404344971009e-19 0.99865128125
vt -2.168404344971009e-19 0.99483286328125
vt -2.168404344971009e-19 0.99865128125
vt 0.00467939453125 0.9948328671875
vt -2.168404344971009e-19 0.99865128125
vt -2.168404344971009e-19 0.99483286328125
vt -0.004679394531249997 0.99483286328125
vt -0.004679394531249997 0.99483286328125
vt -0.00373875 0.99865128125
vt -2.168404344971009e-19 0.99865128125
# 12 uvs
vn 0.02844644010639109 0.8417057765675037 0.5391865964006978
vn 0.014223455227157213 0.8339308576254842 0.5513140664167789
vn 1.1547192099118503e-7 0.8339309202083132 0.5513139686092772
vn 2.3517396166762875e-7 0.8261559386835102 0.5634415364328913
vn -0.01422322428331523 0.8339309827911421 0.5513138708017755
vn -0.02844644856663046 0.8417060268987284 0.5391862051706284
# 6 normals
usemtl 808080
f 3/3/3 2/2/2 1/1/1 
f 2/6/2 3/5/3 4/4/4 
f 5/9/5 4/8/4 3/7/3 
f 3/12/3 6/11/6 5/10/5 
# 4 polygons